<mxfile host="app.diagrams.net" modified="2021-10-29T09:14:52.007Z" agent="5.0 (Windows NT 10.0; Win64; x64) AppleWebKit/537.36 (KHTML, like Gecko) Chrome/95.0.4638.54 Safari/537.36 Edg/95.0.1020.38" etag="HbzE509aBMfNsVsPTnLV" version="15.6.2" type="github">
  <diagram id="bwea3mneemWWG3Lszo-H" name="Page-1">
    <mxGraphModel dx="1185" dy="635" grid="1" gridSize="10" guides="1" tooltips="1" connect="1" arrows="1" fold="1" page="1" pageScale="1" pageWidth="827" pageHeight="1169" math="0" shadow="0">
      <root>
        <mxCell id="0" />
        <mxCell id="1" parent="0" />
        <mxCell id="JTMfDNJcxigV9m1Xy1pA-2" value="" style="shape=ext;double=1;rounded=0;whiteSpace=wrap;html=1;fillColor=#cce5ff;strokeColor=#36393d;" vertex="1" parent="1">
          <mxGeometry x="110" y="40" width="690" height="270" as="geometry" />
        </mxCell>
        <mxCell id="JTMfDNJcxigV9m1Xy1pA-6" value="JVM内存模型" style="text;html=1;strokeColor=none;fillColor=none;align=center;verticalAlign=middle;whiteSpace=wrap;rounded=0;fontSize=16;" vertex="1" parent="1">
          <mxGeometry x="110" y="10" width="230" height="30" as="geometry" />
        </mxCell>
        <mxCell id="JTMfDNJcxigV9m1Xy1pA-12" value="heap 堆内存" style="rounded=1;whiteSpace=wrap;html=1;fontSize=16;fillColor=#ffe6cc;strokeColor=#d79b00;" vertex="1" parent="1">
          <mxGeometry x="120" y="60" width="370" height="90" as="geometry" />
        </mxCell>
        <mxCell id="JTMfDNJcxigV9m1Xy1pA-13" value="young" style="rounded=1;whiteSpace=wrap;html=1;fontSize=16;fillColor=#f5f5f5;strokeColor=#666666;fontColor=#333333;" vertex="1" parent="1">
          <mxGeometry x="120" y="160" width="250" height="60" as="geometry" />
        </mxCell>
        <mxCell id="JTMfDNJcxigV9m1Xy1pA-14" value="old" style="rounded=1;whiteSpace=wrap;html=1;fontSize=16;fillColor=#f5f5f5;strokeColor=#666666;fontColor=#333333;" vertex="1" parent="1">
          <mxGeometry x="370" y="160" width="120" height="60" as="geometry" />
        </mxCell>
        <mxCell id="JTMfDNJcxigV9m1Xy1pA-15" value="Eden" style="rounded=1;whiteSpace=wrap;html=1;fontSize=16;fillColor=#f5f5f5;fontColor=#333333;strokeColor=#666666;" vertex="1" parent="1">
          <mxGeometry x="120" y="250" width="100" height="50" as="geometry" />
        </mxCell>
        <mxCell id="JTMfDNJcxigV9m1Xy1pA-16" value="toFrom" style="rounded=1;whiteSpace=wrap;html=1;fontSize=16;fillColor=#f5f5f5;fontColor=#333333;strokeColor=#666666;" vertex="1" parent="1">
          <mxGeometry x="220" y="250" width="80" height="50" as="geometry" />
        </mxCell>
        <mxCell id="JTMfDNJcxigV9m1Xy1pA-17" value="toSpace" style="rounded=1;whiteSpace=wrap;html=1;fontSize=16;fillColor=#f5f5f5;fontColor=#333333;strokeColor=#666666;" vertex="1" parent="1">
          <mxGeometry x="300" y="250" width="70" height="50" as="geometry" />
        </mxCell>
        <mxCell id="JTMfDNJcxigV9m1Xy1pA-18" value="PremGen 永久代&lt;br&gt;MethodArea 方法区" style="rounded=1;whiteSpace=wrap;html=1;fontSize=16;fillColor=#ffe6cc;strokeColor=#d79b00;" vertex="1" parent="1">
          <mxGeometry x="490" y="60" width="160" height="90" as="geometry" />
        </mxCell>
        <mxCell id="JTMfDNJcxigV9m1Xy1pA-19" value="Stack" style="rounded=1;whiteSpace=wrap;html=1;fontSize=16;fillColor=#fff2cc;strokeColor=#d6b656;" vertex="1" parent="1">
          <mxGeometry x="650" y="60" width="140" height="90" as="geometry" />
        </mxCell>
        <mxCell id="JTMfDNJcxigV9m1Xy1pA-20" value="" style="shape=flexArrow;endArrow=classic;html=1;rounded=0;fontSize=16;" edge="1" parent="1">
          <mxGeometry width="50" height="50" relative="1" as="geometry">
            <mxPoint x="70" y="70" as="sourcePoint" />
            <mxPoint x="70" y="270" as="targetPoint" />
          </mxGeometry>
        </mxCell>
        <mxCell id="JTMfDNJcxigV9m1Xy1pA-21" value="细分过程" style="edgeLabel;html=1;align=center;verticalAlign=middle;resizable=0;points=[];fontSize=16;" vertex="1" connectable="0" parent="JTMfDNJcxigV9m1Xy1pA-20">
          <mxGeometry x="-0.0917" y="-1" relative="1" as="geometry">
            <mxPoint as="offset" />
          </mxGeometry>
        </mxCell>
        <mxCell id="JTMfDNJcxigV9m1Xy1pA-23" value="1.8以前，永久代是方法区的一种实现。&lt;br&gt;1.8之后，元空间取代永久代对方法区的另一种实现。&lt;br&gt;PS：元空间放在了直接内存里。&lt;br&gt;（我是这么理解，JVM在直接内存里面开辟了一块作为整个JVM使用，而JVM内存模型的东西都是在JVM里的，而元空间是直接类似于JVM这样直接在内存里面开辟，而非套娃形式）" style="text;html=1;strokeColor=none;fillColor=none;align=left;verticalAlign=top;whiteSpace=wrap;rounded=0;fontSize=16;" vertex="1" parent="1">
          <mxGeometry x="110" y="420" width="690" height="110" as="geometry" />
        </mxCell>
        <mxCell id="JTMfDNJcxigV9m1Xy1pA-24" value="8&lt;span style=&quot;white-space: pre&quot;&gt;	&lt;/span&gt;:&lt;span style=&quot;white-space: pre&quot;&gt;	&lt;/span&gt;1&lt;span style=&quot;white-space: pre&quot;&gt;	&lt;/span&gt;:&lt;span style=&quot;white-space: pre&quot;&gt;	&lt;/span&gt;1" style="text;html=1;strokeColor=none;fillColor=none;align=center;verticalAlign=middle;whiteSpace=wrap;rounded=0;fontSize=16;" vertex="1" parent="1">
          <mxGeometry x="120" y="220" width="250" height="30" as="geometry" />
        </mxCell>
        <mxCell id="JTMfDNJcxigV9m1Xy1pA-36" value="" style="rounded=1;whiteSpace=wrap;html=1;fontSize=16;align=center;verticalAlign=middle;fillColor=#ffe6cc;strokeColor=#d79b00;" vertex="1" parent="1">
          <mxGeometry x="120" y="330" width="30" height="20" as="geometry" />
        </mxCell>
        <mxCell id="JTMfDNJcxigV9m1Xy1pA-37" value="代表线程共享" style="text;html=1;strokeColor=none;fillColor=none;align=center;verticalAlign=middle;whiteSpace=wrap;rounded=0;fontSize=16;" vertex="1" parent="1">
          <mxGeometry x="170" y="330" width="100" height="20" as="geometry" />
        </mxCell>
        <mxCell id="JTMfDNJcxigV9m1Xy1pA-39" value="" style="rounded=1;whiteSpace=wrap;html=1;fontSize=16;align=center;verticalAlign=middle;fillColor=#fff2cc;strokeColor=#d6b656;" vertex="1" parent="1">
          <mxGeometry x="120" y="360" width="30" height="20" as="geometry" />
        </mxCell>
        <mxCell id="JTMfDNJcxigV9m1Xy1pA-40" value="代表线程不共享" style="text;html=1;strokeColor=none;fillColor=none;align=center;verticalAlign=middle;whiteSpace=wrap;rounded=0;fontSize=16;" vertex="1" parent="1">
          <mxGeometry x="170" y="360" width="120" height="20" as="geometry" />
        </mxCell>
        <mxCell id="JTMfDNJcxigV9m1Xy1pA-42" value="" style="shape=ext;double=1;rounded=0;whiteSpace=wrap;html=1;fontSize=16;align=center;verticalAlign=middle;" vertex="1" parent="1">
          <mxGeometry x="80" y="660" width="540" height="220" as="geometry" />
        </mxCell>
        <mxCell id="JTMfDNJcxigV9m1Xy1pA-44" style="edgeStyle=orthogonalEdgeStyle;shape=flexArrow;rounded=0;orthogonalLoop=1;jettySize=auto;html=1;exitX=0.25;exitY=1;exitDx=0;exitDy=0;fontSize=16;" edge="1" parent="1" source="JTMfDNJcxigV9m1Xy1pA-43">
          <mxGeometry relative="1" as="geometry">
            <mxPoint x="430" y="660" as="targetPoint" />
          </mxGeometry>
        </mxCell>
        <mxCell id="JTMfDNJcxigV9m1Xy1pA-43" value="类加载器" style="rounded=1;whiteSpace=wrap;html=1;strokeWidth=2;fillWeight=4;hachureGap=8;hachureAngle=45;fillColor=#dae8fc;sketch=1;fontSize=16;align=center;verticalAlign=middle;strokeColor=#6c8ebf;" vertex="1" parent="1">
          <mxGeometry x="390" y="550" width="160" height="60" as="geometry" />
        </mxCell>
        <mxCell id="JTMfDNJcxigV9m1Xy1pA-46" style="edgeStyle=orthogonalEdgeStyle;shape=flexArrow;rounded=0;orthogonalLoop=1;jettySize=auto;html=1;entryX=0;entryY=0.417;entryDx=0;entryDy=0;entryPerimeter=0;fontSize=16;" edge="1" parent="1" source="JTMfDNJcxigV9m1Xy1pA-45" target="JTMfDNJcxigV9m1Xy1pA-43">
          <mxGeometry relative="1" as="geometry" />
        </mxCell>
        <mxCell id="JTMfDNJcxigV9m1Xy1pA-45" value="字节码文件" style="text;strokeColor=none;fillColor=none;html=1;fontSize=24;fontStyle=1;verticalAlign=middle;align=center;" vertex="1" parent="1">
          <mxGeometry x="150" y="550" width="130" height="50" as="geometry" />
        </mxCell>
        <mxCell id="JTMfDNJcxigV9m1Xy1pA-48" value="方法区" style="rounded=0;whiteSpace=wrap;html=1;fontSize=16;align=center;verticalAlign=middle;fillColor=#ffe6cc;strokeColor=#d79b00;" vertex="1" parent="1">
          <mxGeometry x="115" y="690" width="120" height="60" as="geometry" />
        </mxCell>
        <mxCell id="JTMfDNJcxigV9m1Xy1pA-49" value="堆" style="rounded=0;whiteSpace=wrap;html=1;fontSize=16;align=center;verticalAlign=middle;fillColor=#ffe6cc;strokeColor=#d79b00;" vertex="1" parent="1">
          <mxGeometry x="115" y="770" width="120" height="100" as="geometry" />
        </mxCell>
        <mxCell id="JTMfDNJcxigV9m1Xy1pA-50" value="栈" style="rounded=1;whiteSpace=wrap;html=1;fontSize=16;align=center;verticalAlign=middle;fillColor=#fff2cc;strokeColor=#d6b656;" vertex="1" parent="1">
          <mxGeometry x="315" y="690" width="120" height="60" as="geometry" />
        </mxCell>
        <mxCell id="JTMfDNJcxigV9m1Xy1pA-51" value="程序计数器" style="rounded=1;whiteSpace=wrap;html=1;fontSize=16;align=center;verticalAlign=middle;fillColor=#fff2cc;strokeColor=#d6b656;" vertex="1" parent="1">
          <mxGeometry x="315" y="790" width="270" height="60" as="geometry" />
        </mxCell>
        <mxCell id="JTMfDNJcxigV9m1Xy1pA-52" value="本地方法栈" style="rounded=1;whiteSpace=wrap;html=1;fontSize=16;align=center;verticalAlign=middle;fillColor=#fff2cc;strokeColor=#d6b656;" vertex="1" parent="1">
          <mxGeometry x="465" y="690" width="120" height="60" as="geometry" />
        </mxCell>
        <mxCell id="JTMfDNJcxigV9m1Xy1pA-59" style="edgeStyle=orthogonalEdgeStyle;shape=flexArrow;rounded=0;orthogonalLoop=1;jettySize=auto;html=1;entryX=0;entryY=0.5;entryDx=0;entryDy=0;fontSize=16;" edge="1" parent="1" source="JTMfDNJcxigV9m1Xy1pA-54" target="JTMfDNJcxigV9m1Xy1pA-56">
          <mxGeometry relative="1" as="geometry" />
        </mxCell>
        <mxCell id="JTMfDNJcxigV9m1Xy1pA-54" value="本地接口" style="shape=ext;double=1;rounded=1;whiteSpace=wrap;html=1;fontSize=16;align=center;verticalAlign=middle;" vertex="1" parent="1">
          <mxGeometry x="294" y="950" width="120" height="80" as="geometry" />
        </mxCell>
        <mxCell id="JTMfDNJcxigV9m1Xy1pA-56" value="本地库" style="ellipse;shape=doubleEllipse;whiteSpace=wrap;html=1;fontSize=16;align=center;verticalAlign=middle;" vertex="1" parent="1">
          <mxGeometry x="500" y="960" width="100" height="60" as="geometry" />
        </mxCell>
        <mxCell id="JTMfDNJcxigV9m1Xy1pA-58" style="edgeStyle=orthogonalEdgeStyle;shape=flexArrow;rounded=0;orthogonalLoop=1;jettySize=auto;html=1;entryX=0;entryY=0.5;entryDx=0;entryDy=0;fontSize=16;" edge="1" parent="1" source="JTMfDNJcxigV9m1Xy1pA-57" target="JTMfDNJcxigV9m1Xy1pA-54">
          <mxGeometry relative="1" as="geometry" />
        </mxCell>
        <mxCell id="JTMfDNJcxigV9m1Xy1pA-57" value="执行引擎" style="shape=ext;double=1;rounded=1;whiteSpace=wrap;html=1;fontSize=16;align=center;verticalAlign=middle;" vertex="1" parent="1">
          <mxGeometry x="80" y="950" width="150" height="80" as="geometry" />
        </mxCell>
        <mxCell id="JTMfDNJcxigV9m1Xy1pA-60" value="" style="shape=flexArrow;endArrow=classic;startArrow=classic;html=1;rounded=0;fontSize=16;entryX=0.113;entryY=1.003;entryDx=0;entryDy=0;entryPerimeter=0;exitX=0.406;exitY=0;exitDx=0;exitDy=0;exitPerimeter=0;" edge="1" parent="1" source="JTMfDNJcxigV9m1Xy1pA-57" target="JTMfDNJcxigV9m1Xy1pA-42">
          <mxGeometry width="100" height="100" relative="1" as="geometry">
            <mxPoint x="141" y="940" as="sourcePoint" />
            <mxPoint x="240" y="900" as="targetPoint" />
          </mxGeometry>
        </mxCell>
        <mxCell id="JTMfDNJcxigV9m1Xy1pA-61" value="" style="shape=flexArrow;endArrow=classic;startArrow=classic;html=1;rounded=0;fontSize=16;entryX=0.5;entryY=1;entryDx=0;entryDy=0;" edge="1" parent="1" target="JTMfDNJcxigV9m1Xy1pA-42">
          <mxGeometry width="100" height="100" relative="1" as="geometry">
            <mxPoint x="350" y="950" as="sourcePoint" />
            <mxPoint x="350" y="910" as="targetPoint" />
          </mxGeometry>
        </mxCell>
      </root>
    </mxGraphModel>
  </diagram>
</mxfile>
